# xmcd
#
# Track frame offsets: 
#        150
#        2520
#        20542
#        34892
#        50887
#        70632
#        90760
#        110890
#        131112
#        145475
#        167092
#        181587
#        201567
#        217005
#        238637
#
# Disc length: 3373 seconds
#
# Revision: 0
# Processed by: cddbd v1.5.2PL0 Copyright (c) Steve Scherf et al.
# Submitted via: ExactAudioCopy v1.0b3
#
DISCID=d80d2b0f
DTITLE=Dream Evil - United [Disc 1]
DYEAR=2006
DGENRE=Metal
TTITLE0=Introduction
TTITLE1=Falling
TTITLE2=Fire! Battle! In Metal!
TTITLE3=United
TTITLE4=Blind Evil
TTITLE5=Evilution
TTITLE6=Let Me Out
TTITLE7=Higher On Fire
TTITLE8=Kingdom At War
TTITLE9=Love Is Blind
TTITLE10=Pain Patrol
TTITLE11=Back From The Dead
TTITLE12=Lady Of Pleasure
TTITLE13=Doomlord
TTITLE14=My Number One
EXTD=
EXTT0=
EXTT1=
EXTT2=
EXTT3=
EXTT4=
EXTT5=
EXTT6=
EXTT7=
EXTT8=
EXTT9=
EXTT10=
EXTT11=
EXTT12=
EXTT13=
EXTT14=
PLAYORDER=
